<svg width="18" height="18" viewBox="0 0 18 18" fill="none" xmlns="http://www.w3.org/2000/svg">
<g clip-path="url(#clip0_1903_52)">
<path fill-rule="evenodd" clip-rule="evenodd" d="M8.77188 1C9.81088 1.03948 10.887 1.03948 11.926 1.07895C12.8537 1.11842 13.7071 1.27632 14.5235 1.78948C15.5625 2.46054 16.1933 3.44739 16.4159 4.71056C16.5273 5.46057 16.5644 6.25005 16.6015 7.00006C16.6386 8.65797 16.6015 10.3159 16.6015 11.9738C16.6015 12.8422 16.5644 13.7106 16.3046 14.5396C15.7851 16.158 14.709 17.1449 13.1505 17.4607C12.4455 17.6186 11.7033 17.6186 10.9983 17.6581C9.4398 17.6975 7.91841 17.6581 6.35991 17.6581C5.54356 17.6581 4.7272 17.6186 3.94796 17.3423C2.42656 16.7896 1.49888 15.6449 1.20203 13.987C1.0536 13.237 1.0536 12.4475 1.01649 11.6975C0.979384 10.0396 1.01649 8.38165 1.01649 6.72374C1.01649 5.85531 1.0536 4.98688 1.31335 4.15792C1.83285 2.53949 2.90895 1.55264 4.46745 1.23685C5.17249 1.07895 5.91463 1.07895 6.61967 1.03948C7.3247 1 8.02973 1 8.77188 1V1ZM15.1906 9.17119C15.1906 9.17119 15.1535 9.17119 15.1906 9.17119C15.1535 8.50012 15.1535 7.86854 15.1535 7.19748C15.1535 6.5659 15.1164 5.93431 15.0422 5.30273C14.8938 3.88165 14.1145 2.93428 12.8158 2.65796C12.1478 2.50006 11.4057 2.50006 10.7378 2.50006C9.40191 2.46059 8.10316 2.46059 6.76731 2.50006C6.09938 2.50006 5.43145 2.53953 4.80063 2.65796C3.68742 2.85533 2.90817 3.52639 2.57421 4.71061C2.46288 5.10535 2.42578 5.50009 2.38867 5.89483C2.35156 7.39485 2.35156 8.89486 2.35156 10.3949C2.35156 11.3423 2.38867 12.3291 2.46288 13.2765C2.57421 14.6975 3.39056 15.6844 4.72642 15.9212C5.39434 16.0397 6.09938 16.0791 6.80441 16.0791C8.10316 16.1186 9.40191 16.0791 10.7378 16.0791C11.3315 16.0791 11.9252 16.0397 12.5189 15.9607C13.0755 15.9212 13.595 15.7239 14.0403 15.3291C14.7824 14.6975 15.0422 13.8686 15.0793 12.9212C15.1535 11.737 15.1535 10.4738 15.1906 9.17119Z" fill="#18063C"/>
<path fill-rule="evenodd" clip-rule="evenodd" d="M12.7808 9.32958C12.7808 11.698 10.9996 13.5928 8.7732 13.5928C6.54677 13.5928 4.76562 11.698 4.76562 9.29011C4.76562 6.96115 6.58387 5.06641 8.8103 5.06641C10.9996 5.06641 12.7808 6.96115 12.7808 9.32958ZM8.77413 12.0927C10.1842 12.0927 11.3716 10.8296 11.3716 9.32958C11.3716 7.82957 10.1842 6.56641 8.77413 6.56641C7.32695 6.56641 6.17663 7.82957 6.17663 9.32958C6.13952 10.8296 7.32695 12.0927 8.77413 12.0927Z" fill="#18063C"/>
<path d="M13.8536 4.63666C13.8536 5.15616 13.4454 5.60145 12.9259 5.60145C12.4064 5.60145 11.9611 5.15616 11.9983 4.63666C11.9983 4.11716 12.4064 3.70898 12.9259 3.70898C13.4454 3.70898 13.8536 4.11716 13.8536 4.63666Z" fill="#18063C"/>
</g>
<defs>
<clipPath id="clip0_1903_52">
<rect width="15.618" height="16.6756" fill="white" transform="translate(1 1)"/>
</clipPath>
</defs>
</svg>
