<svg width="18" height="17" viewBox="0 0 18 17" fill="none" xmlns="http://www.w3.org/2000/svg">
<path fill-rule="evenodd" clip-rule="evenodd" d="M17.3474 3.67349C16.6943 3.95922 16.0412 4.1633 15.3065 4.24493C16.0412 3.79595 16.6127 3.10206 16.8576 2.28572C16.1637 2.69389 15.3882 2.97961 14.6126 3.14287C13.9596 2.44898 13.0208 2 12.0003 2C10.0411 2 8.44921 3.59186 8.44921 5.55108C8.44921 5.8368 8.49003 6.12251 8.53084 6.36742C5.55117 6.20415 2.93886 4.81637 1.1837 2.65307C0.857165 3.18369 0.693896 3.79595 0.693896 4.44902C0.693896 5.67353 1.30616 6.77559 2.28578 7.42866C1.71433 7.42866 1.14289 7.26539 0.653078 6.97967V7.02048C0.653078 8.73481 1.8776 10.2042 3.5103 10.5307C3.22457 10.6124 2.89804 10.6532 2.5715 10.6532C2.32659 10.6532 2.12251 10.6124 1.91842 10.5716C2.36741 12.0002 3.67357 13.0206 5.26545 13.0614C4.04093 14.0002 2.53068 14.5716 0.857165 14.5716C0.571445 14.5716 0.285724 14.5716 0 14.5308C1.59188 15.5512 3.42866 16.1227 5.46954 16.1227C12.0411 16.1227 15.5923 10.694 15.5923 6.00007C15.5923 5.8368 15.5923 5.67353 15.5923 5.55108C16.2862 5.02046 16.8984 4.36738 17.3474 3.67349V3.67349Z" fill="#18063C"/>
</svg>
